<svg width="315" height="337" viewBox="0 0 315 337" fill="none" xmlns="http://www.w3.org/2000/svg">
<path d="M313.621 326.025C314.363 326.457 314.363 327.538 313.621 327.971L298.189 336.957C297.446 337.39 296.518 336.849 296.518 335.984L296.518 318.011C296.518 317.146 297.446 316.605 298.189 317.038L313.621 326.025Z" fill="#3E8BF3"/>
<path d="M0 25.8358C0 17.2915 0.351374 8.8292 1.04046 0.462646H8.03016C7.32494 8.8268 6.96517 17.2893 6.96517 25.8358C6.96517 188.927 137.976 321.419 300.497 323.813V330.779C134.129 328.384 0 192.774 0 25.8358Z" fill="url(#paint0_linear_76_3900)"/>
<defs>
<linearGradient id="paint0_linear_76_3900" x1="305.97" y1="346.731" x2="-68.1592" y2="146.731" gradientUnits="userSpaceOnUse">
<stop stop-color="#3E8BF3"/>
<stop offset="1" stop-color="#3E8BF3" stop-opacity="0"/>
</linearGradient>
</defs>
</svg>
