<?xml version="1.0" standalone="no"?>
<!DOCTYPE svg PUBLIC "-//W3C//DTD SVG 1.0//EN" "http://www.w3.org/TR/2001/REC-SVG-20010904/DTD/svg10.dtd">
<svg xmlns="http://www.w3.org/2000/svg" xmlns:xlink="http://www.w3.org/1999/xlink" id="body_1" width="24" height="24">

<defs>
    <linearGradient transform="matrix(1 0 0 1 0 0)"  id="1" x1="-3.3171005" y1="-3.3169994" x2="67.309906" y2="-3.3169994">
        <stop stop-color="#F9AA4B" offset="0%"/>
        <stop stop-color="#F7931A" offset="100%"/>
    </linearGradient>
</defs>

<g transform="matrix(24 0 0 24 0 0)">
	<g transform="matrix(0.015625 0 0 0.015625 0 0)">
        <path d="M63.0359 39.741C 58.7619 56.884003 41.398903 67.317 24.253899 63.042C 7.115898 58.767998 -3.3171005 41.404 0.95889854 24.262001C 5.2308984 7.1170006 22.593899 -3.3169994 39.733902 0.95700073C 56.8779 5.231001 67.309906 22.597 63.035904 39.741L63.035904 39.741L63.0359 39.741z" stroke="none" fill="url(#1)" />
        <path d="M46.1009 27.441C 46.7379 23.183 43.4959 20.894001 39.062897 19.367L39.062897 19.367L40.500896 13.599001L36.989895 12.724001L35.589893 18.34C 34.666893 18.11 33.718895 17.893 32.776894 17.678L32.776894 17.678L34.186893 12.025L30.677893 11.15L29.238894 16.916C 28.474894 16.742 27.724894 16.57 26.996893 16.389L26.996893 16.389L27.000893 16.371L22.158894 15.162001L21.224894 18.912C 21.224894 18.912 23.829893 19.509 23.774893 19.546001C 25.196894 19.901001 25.453894 20.842001 25.410892 21.588001L25.410892 21.588001L23.772892 28.159C 23.870892 28.184 23.997892 28.220001 24.137892 28.276001C 24.020891 28.247002 23.895891 28.215 23.766891 28.184002L23.766891 28.184002L21.470892 37.389C 21.296892 37.821 20.855892 38.469 19.861893 38.223C 19.896893 38.274 17.309893 37.586 17.309893 37.586L17.309893 37.586L15.566893 41.605L20.135893 42.744C 20.985893 42.957 21.818893 43.18 22.638893 43.39L22.638893 43.39L21.185894 49.224L24.692894 50.099L26.131893 44.327C 27.089893 44.586998 28.019894 44.827 28.929893 45.053L28.929893 45.053L27.495893 50.798L31.006893 51.673L32.459892 45.85C 38.44689 46.982998 42.94889 46.525997 44.84389 41.111C 46.37089 36.751 44.76789 34.236 41.61789 32.596C 43.91189 32.067 45.63989 30.558 46.10089 27.441L46.10089 27.441L46.1009 27.441zM38.0789 38.69C 36.9939 43.05 29.6529 40.692997 27.2729 40.101997L27.2729 40.101997L29.2009 32.372997C 31.580898 32.967 39.2129 34.142998 38.0789 38.69zM39.164898 27.377998C 38.174896 31.343998 32.0649 29.328999 30.082897 28.835L30.082897 28.835L31.830896 21.824999C 33.812897 22.318998 40.195896 23.241 39.164898 27.377998z" stroke="none" fill="#FFFFFF" fill-rule="nonzero" />
	</g>
</g>
</svg>