<svg width="21" height="20" viewBox="0 0 21 20" fill="none" xmlns="http://www.w3.org/2000/svg">
<g clip-path="url(#clip0_76_3808)">
<path d="M10.4962 20C16.0191 20 20.4962 15.5228 20.4962 10C20.4962 4.47715 16.0191 0 10.4962 0C4.97337 0 0.496216 4.47715 0.496216 10C0.496216 15.5228 4.97337 20 10.4962 20Z" fill="#FCFCFC"/>
<path d="M4.62656 9.27531L3.53961 7.30331L4.62656 5.36226L5.71352 7.30331L4.62656 9.27531Z" fill="#A2001D"/>
<path d="M2.45268 9.27531L1.36572 7.30331L2.45268 5.36226L3.53963 7.30331L2.45268 9.27531Z" fill="#A2001D"/>
<path d="M4.62656 14.6376L3.53961 12.6657L4.62656 10.7246L5.71352 12.6657L4.62656 14.6376Z" fill="#A2001D"/>
<path d="M2.45268 14.6376L1.36572 12.6657L2.45268 10.7246L3.53963 12.6657L2.45268 14.6376Z" fill="#A2001D"/>
<path d="M5.71357 1.94106L5.40583 1.39153C4.85388 1.71856 4.33618 2.09719 3.85919 2.52078L4.62661 3.91301L5.71357 1.94106Z" fill="#A2001D"/>
<path d="M4.62662 16.0869L3.85107 17.4719C4.32764 17.8961 4.84498 18.2753 5.3967 18.603L5.71361 18.028L4.62662 16.0869Z" fill="#A2001D"/>
<path d="M6.58319 12.6087V19.2049C7.7851 19.7165 9.10749 20 10.4962 20C14.7959 20 18.4613 17.2863 19.8742 13.4783L6.58319 12.6087Z" fill="#6DA544"/>
<path d="M19.8742 13.4782C20.2762 12.3949 20.4962 11.2232 20.4962 10C20.4962 4.47719 16.0191 0 10.4962 0C9.1076 0 7.7851 0.28332 6.58319 0.794844V13.4783H19.8742V13.4782Z" fill="#A2001D"/>
</g>
<defs>
<clipPath id="clip0_76_3808">
<rect width="20" height="20" fill="white" transform="translate(0.496216)"/>
</clipPath>
</defs>
</svg>
