<svg width="21" height="20" viewBox="0 0 21 20" fill="none" xmlns="http://www.w3.org/2000/svg">
<g clip-path="url(#clip0_76_3791)">
<path d="M10.4962 20C16.0191 20 20.4962 15.5228 20.4962 10C20.4962 4.47715 16.0191 0 10.4962 0C4.97337 0 0.496216 4.47715 0.496216 10C0.496216 15.5228 4.97337 20 10.4962 20Z" fill="#F0F0F0"/>
<path d="M19.8742 13.4783C20.2762 12.395 20.4962 11.2233 20.4962 10.0001C20.4962 8.77685 20.2762 7.60513 19.8742 6.52181H1.11821C0.716255 7.60513 0.496216 8.77685 0.496216 10.0001C0.496216 11.2233 0.716255 12.395 1.11821 13.4783L10.4962 14.3479L19.8742 13.4783Z" fill="#0052B4"/>
<path d="M10.4963 19.9999C14.7959 19.9999 18.4614 17.2862 19.8743 13.4782H1.11829C2.53122 17.2862 6.19665 19.9999 10.4963 19.9999Z" fill="#D80027"/>
</g>
<defs>
<clipPath id="clip0_76_3791">
<rect width="20" height="20" fill="white" transform="translate(0.496216)"/>
</clipPath>
</defs>
</svg>
