<?xml version="1.0" standalone="no"?>
<!DOCTYPE svg PUBLIC "-//W3C//DTD SVG 1.0//EN" "http://www.w3.org/TR/2001/REC-SVG-20010904/DTD/svg10.dtd">
<svg xmlns="http://www.w3.org/2000/svg" xmlns:xlink="http://www.w3.org/1999/xlink" id="body_1" width="24" height="24">

<g transform="matrix(0.012 0 0 0.012 0 0)">
	<g>
        <path d="M1024 659L881.12 659L881.12 940.69L1105.91 940.69L1105.91 1058.63L881.12 1058.63L881.12 1340.3L1031 1340.3C 1069.51 1340.3 1347.16 1344.65 1346.73 1012.5801C 1346.2999 680.51013 1077.44 659 1024 659z" stroke="none" fill="#C2A633" fill-rule="nonzero" />
        <path d="M1000 0C 447.71 0 0 447.71 0 1000C 0 1552.29 447.71 2000 1000 2000C 1552.29 2000 2000 1552.29 2000 1000C 2000 447.70996 1552.29 0 1000 0zM1039.29 1540.1L677.14 1540.1L677.14 1058.64L549.48 1058.64L549.48 940.7L677.13 940.7L677.13 459.21L987.95 459.21C 1061.48 459.21 1548.51 443.94 1548.51 1008.68994C 1548.51 1582.78 1039.3 1540.0999 1039.3 1540.0999z" stroke="none" fill="#C2A633" fill-rule="nonzero" />
	</g>
</g>
</svg>