<svg width="20" height="20" xmlns="http://www.w3.org/2000/svg" clip-rule="evenodd" fill-rule="evenodd" image-rendering="optimizeQuality" text-rendering="geometricPrecision" shape-rendering="geometricPrecision">

 <g>
  <title>Layer 1</title>
  <g id="svg_1" fill-rule="nonzero">
   <path id="svg_2" d="m10.03926,0.14259c2.74106,0 5.22345,1.10472 7.01981,2.89054c1.79674,1.78544 2.90821,4.25275 2.90821,6.97716c0,2.72441 -1.11147,5.19172 -2.90821,6.97716c-1.79635,1.78582 -4.27874,2.89054 -7.01981,2.89054c-2.74106,0 -5.22345,-1.10472 -7.01981,-2.89054c-1.79674,-1.78544 -2.90821,-4.25275 -2.90821,-6.97716c0,-2.72441 1.11147,-5.19172 2.90821,-6.97716c1.79635,-1.78582 4.27874,-2.89054 7.01981,-2.89054z" fill="#999"/>
   <path id="svg_3" d="m10.03926,0.89346c2.53203,0 4.82672,1.02069 6.48617,2.67006l0.04227,0.04548c1.63424,1.64667 2.64372,3.90738 2.64372,6.4009c0,2.51742 -1.02732,4.7974 -2.68677,6.44677l-0.04615,0.04201c-1.65674,1.62509 -3.93243,2.62843 -6.43925,2.62843c-2.5297,0 -4.82362,-1.02185 -6.48346,-2.67237c-1.66139,-1.64744 -2.6891,-3.92742 -2.6891,-6.44484c0,-2.51742 1.02693,-4.79701 2.68638,-6.44639c1.65945,-1.64937 3.95337,-2.67006 6.48617,-2.67006z" fill="#fff"/>
   <path id="svg_4" d="m10.03926,1.66862c1.53109,0 2.96638,0.40781 4.20273,1.11937l-8.40546,0c1.23635,-0.71155 2.67164,-1.11937 4.20273,-1.11937zm6.04368,2.55481c0.35524,0.36541 0.67557,0.76398 0.95867,1.18914l-14.0051,0c0.28272,-0.42747 0.6046,-0.82719 0.95867,-1.18914l12.08775,0zm1.72228,2.61995c0.159,0.3843 0.28931,0.78171 0.38936,1.19183l-16.31064,0c0.10122,-0.40936 0.23385,-0.80561 0.38936,-1.19183l15.53192,0zm0.60809,2.62419c0.01163,0.18039 0.01823,0.36117 0.01823,0.54234c0,0.21855 -0.00853,0.43557 -0.02521,0.6495l-16.73414,0c-0.01629,-0.21547 -0.02521,-0.43402 -0.02521,-0.6495c0,-0.18232 0.00659,-0.3631 0.01823,-0.54234l16.7481,0zm-0.2451,2.62342a8.25961,8.20943 0 0 1 -0.40798,1.1926l-15.44194,0c-0.16482,-0.38623 -0.30366,-0.78595 -0.40798,-1.1926l16.2579,0zm-1.19834,2.62342c-0.2959,0.4294 -0.6302,0.83105 -0.99978,1.19762l-11.86165,0c-0.36842,-0.36657 -0.70388,-0.76822 -0.99978,-1.19762l13.86122,0zm-2.91907,2.62419c-1.19679,0.64641 -2.56577,1.01337 -4.01154,1.01337c-1.45314,0 -2.82018,-0.36734 -4.01154,-1.01337l8.02308,0z" fill="#B22234"/>
   <path id="svg_5" d="m10.51085,1.68211l0,9.0355l-8.83322,0c-0.02055,-0.23397 -0.03064,-0.46872 -0.03064,-0.7077c0,-4.6066 3.75713,-8.34129 8.39228,-8.34129c0.15823,0 0.31568,0.00501 0.47158,0.01349z" fill="#3C3B6E"/>
   <path id="svg_6" d="m2.08173,7.35296l0.03801,0.11795l-0.06205,-0.04548l0.02404,-0.07247zm7.34091,1.92382l0.31064,0.95054l-0.81286,-0.58782l1.00405,0l-0.81324,0.58782l0.31141,-0.95054zm0,-1.83709l0.31064,0.949l-0.81286,-0.58667l1.00405,0l-0.81324,0.58667l0.31141,-0.949zm0,-1.83825l0.31064,0.95015l-0.81286,-0.58821l1.00405,0l-0.81324,0.58821l0.31141,-0.95015zm0,-1.83709l0.31064,0.949l-0.81286,-0.58705l1.00405,0l-0.81324,0.58705l0.31141,-0.949zm0,-1.83747l0.31064,0.94938l-0.81286,-0.58744l1.00405,0l-0.81324,0.58744l0.31141,-0.94938zm-1.08898,6.43135l0.31141,0.94977l-0.81363,-0.58782l1.00405,0l-0.80898,0.58782l0.30715,-0.94977zm0,-1.83747l0.31141,0.95015l-0.81363,-0.58821l1.00405,0l-0.80898,0.58821l0.30715,-0.95015zm0,-1.83709l0.31141,0.949l-0.81363,-0.58705l1.00405,0l-0.80898,0.58705l0.30715,-0.949zm0,-1.83863l0.31141,0.95015l-0.81363,-0.58782l1.00405,0l-0.80898,0.58782l0.30715,-0.95015zm-1.08471,6.43174l0.31141,0.95054l-0.81363,-0.58782l1.00482,0l-0.81324,0.58782l0.31064,-0.95054zm0,-1.83709l0.31141,0.949l-0.81363,-0.58667l1.00482,0l-0.81324,0.58667l0.31064,-0.949zm0,-1.83825l0.31141,0.95015l-0.81363,-0.58821l1.00482,0l-0.81324,0.58821l0.31064,-0.95015zm0,-1.83709l0.31141,0.949l-0.81363,-0.58705l1.00482,0l-0.81324,0.58705l0.31064,-0.949zm0.0636,-1.64513l0.24781,0.75704l-0.77291,-0.55814l0.07213,-0.02929l0.89197,0l-0.81324,0.58744l0.23152,-0.70693l0.14272,-0.05011zm-1.15219,6.23901l0.31064,0.94977l-0.81324,-0.58782l1.00482,0l-0.81363,0.58782l0.31141,-0.94977zm0,-1.83747l0.31064,0.95015l-0.81324,-0.58821l1.00482,0l-0.81363,0.58821l0.31141,-0.95015zm0,-1.83709l0.31064,0.949l-0.81324,-0.58705l1.00482,0l-0.81363,0.58705l0.31141,-0.949zm0,-1.83863l0.31064,0.95015l-0.81324,-0.58782l1.00482,0l-0.81363,0.58782l0.31141,-0.95015zm-1.08471,6.43174l0.30715,0.95054l-0.80898,-0.58782l1.00405,0l-0.81363,0.58782l0.31141,-0.95054zm0,-1.83709l0.30715,0.949l-0.80898,-0.58667l1.00405,0l-0.81363,0.58667l0.31141,-0.949zm0,-1.83825l0.30715,0.95015l-0.80898,-0.58821l1.00405,0l-0.81363,0.58821l0.31141,-0.95015zm0,-1.83709l0.30715,0.949l-0.80898,-0.58705l1.00405,0l-0.81363,0.58705l0.31141,-0.949zm-1.08898,4.59388l0.31141,0.94977l-0.81324,-0.58782l1.00444,0l-0.81324,0.58782l0.31064,-0.94977zm0,-1.83747l0.31141,0.95015l-0.81324,-0.58821l1.00444,0l-0.81324,0.58821l0.31064,-0.95015zm0,-1.83709l0.31141,0.949l-0.81324,-0.58705l1.00444,0l-0.81324,0.58705l0.31064,-0.949zm-1.0882,4.59311l0.31064,0.95054l-0.81363,-0.58782l1.00909,0l-0.81751,0.58782l0.31141,-0.95054zm0,-1.83709l0.31064,0.949l-0.81363,-0.58667l1.00909,0l-0.81751,0.58667l0.31141,-0.949zm0.00543,-1.82167l0.30521,0.93358l-0.59568,-0.43056l0.08532,-0.15765l0.70582,0l-0.81751,0.58821l0.29474,-0.89889l0.02211,-0.03469zm-1.09014,2.74022l0.30598,0.94977l-0.41225,-0.2995l-0.01823,0.16459l0.62632,-0.45291l-0.56931,0c0.01862,-0.11641 0.03956,-0.23205 0.06283,-0.34653l0.00465,-0.01542zm0.44366,-1.47553l0.05817,0l-0.08299,0.06052l0.02482,-0.06052z" fill="#fff"/>
  </g>
 </g>
</svg>