<svg width="129" height="32" viewBox="0 0 129 32" fill="none" xmlns="http://www.w3.org/2000/svg">
<path fill-rule="evenodd" clip-rule="evenodd" d="M47.4592 27.0451H39.3929V4.95511H47.4592C54.5766 4.95511 59.4797 9.84646 59.4797 16.0001C59.4797 22.1537 54.5766 27.0451 47.4592 27.0451ZM44.1378 9.3731V22.6271H47.4592C51.8878 22.6271 54.5766 19.9447 54.5766 16.0001C54.5766 12.0555 51.8878 9.3731 47.4592 9.3731H44.1378Z" fill="black"/>
<path d="M79.2612 27.0451H62.6541V13.7844L67.399 13.7844V13.7911H76.8888V17.8935H67.399V22.6271H79.2612V27.0451Z" fill="black"/>
<path d="M62.6541 9.37057V4.95511H79.2612V9.3731H74.3937V9.37057L62.6541 9.37057Z" fill="black"/>
<path fill-rule="evenodd" clip-rule="evenodd" d="M88.1879 27.0451H83.443V4.95511H93.7236C99.1012 4.95511 102.581 8.42639 102.581 12.6866C102.581 16.9468 99.1012 20.4181 93.7236 20.4181H88.1879V27.0451ZM88.1879 9.3731V16.0001H93.5654C96.2542 16.0001 97.6777 14.58 97.6777 12.6866C97.6777 10.7932 96.2542 9.3731 93.5654 9.3731H88.1879Z" fill="black"/>
<path fill-rule="evenodd" clip-rule="evenodd" d="M116.822 27.6762C109.862 27.6762 104.643 22.4693 104.643 16.0001C104.643 9.53089 109.862 4.32397 116.822 4.32397C123.781 4.32397 129 9.53089 129 16.0001C129 22.4693 123.781 27.6762 116.822 27.6762ZM116.822 8.74196C112.709 8.74196 109.704 11.7399 109.704 16.0001C109.704 20.2603 112.709 23.2582 116.822 23.2582C120.934 23.2582 123.939 20.2603 123.939 16.0001C123.939 11.7399 120.934 8.74196 116.822 8.74196Z" fill="black"/>
<path d="M17.1885 20.8595C17.935 21.2942 17.935 22.381 17.1885 22.8157L1.67959 31.8471C0.933118 32.2818 2.77323e-05 31.7385 2.77704e-05 30.8691L2.85607e-05 12.8061C2.85988e-05 11.9367 0.933119 11.3933 1.67959 11.828L17.1885 20.8595Z" fill="#3E8BF3"/>
<path d="M10.5182 9.18446C9.77169 9.61916 9.7717 10.7059 10.5182 11.1406L26.0271 20.1721C26.7735 20.6068 27.7066 20.0634 27.7066 19.194L27.7066 1.13107C27.7066 0.261668 26.7735 -0.281708 26.0271 0.152993L10.5182 9.18446Z" fill="#6FD6BD"/>
</svg>
